{
  "accessors": [
    {
      "bufferView": 2,
      "componentType": 5126,
      "count": 926,
      "max": [
        0.0776265412569046,
        -0.08740662783384323,
        0.06039340794086456
      ],
      "min": [
        -0.07813884317874908,
        -0.12490098923444748,
        -0.011483759619295597
      ],
      "type": "VEC3"
    },
    {
      "bufferView": 2,
      "byteOffset": 11112,
      "componentType": 5126,
      "count": 926,
      "max": [
        0.9779383540153503,
        1.0,
        1.0
      ],
      "min": [
        -0.977938175201416,
        -1.0,
        -1.0
      ],
      "type": "VEC3"
    },
    {
      "bufferView": 1,
      "componentType": 5126,
      "count": 926,
      "max": [
        1.0,
        1.0
      ],
      "min": [
        0.0,
        0.0
      ],
      "type": "VEC2"
    },
    {
      "bufferView": 0,
      "componentType": 5125,
      "count": 4224,
      "type": "SCALAR"
    },
    {
      "bufferView": 2,
      "byteOffset": 22224,
      "componentType": 5126,
      "count": 2875,
      "max": [
        0.11349615454673767,
        -0.011746843345463276,
        0.2059411257505417
      ],
      "min": [
        -0.12193894386291504,
        -0.021746855229139328,
        0.06627191603183746
      ],
      "type": "VEC3"
    },
    {
      "bufferView": 2,
      "byteOffset": 56724,
      "componentType": 5126,
      "count": 2875,
      "max": [
        0.999918520450592,
        1.0,
        0.9999513030052185
      ],
      "min": [
        -0.9988350868225098,
        -1.0,
        -0.999922513961792
      ],
      "type": "VEC3"
    },
    {
      "bufferView": 1,
      "byteOffset": 7408,
      "componentType": 5126,
      "count": 2875,
      "max": [
        0.9722222089767456,
        1.0000003576278687
      ],
      "min": [
        -0.027777791023254395,
        0.0
      ],
      "type": "VEC2"
    },
    {
      "bufferView": 0,
      "byteOffset": 16896,
      "componentType": 5125,
      "count": 15408,
      "type": "SCALAR"
    },
    {
      "bufferView": 2,
      "byteOffset": 91224,
      "componentType": 5126,
      "count": 4285,
      "max": [
        0.12027637660503387,
        0.12028347700834274,
        0.12173393368721008
      ],
      "min": [
        -0.12027637660503387,
        -0.12028348445892334,
        -0.2093009352684021
      ],
      "type": "VEC3"
    },
    {
      "bufferView": 2,
      "byteOffset": 142644,
      "componentType": 5126,
      "count": 4285,
      "max": [
        0.9998403191566467,
        0.999840259552002,
        1.0
      ],
      "min": [
        -0.999840259552002,
        -0.999840259552002,
        -1.0
      ],
      "type": "VEC3"
    },
    {
      "bufferView": 1,
      "byteOffset": 30408,
      "componentType": 5126,
      "count": 4285,
      "max": [
        0.9999998211860657,
        1.0
      ],
      "min": [
        0.0,
        5.960464477539063e-08
      ],
      "type": "VEC2"
    },
    {
      "bufferView": 0,
      "byteOffset": 78528,
      "componentType": 5125,
      "count": 23328,
      "type": "SCALAR"
    },
    {
      "bufferView": 2,
      "byteOffset": 194064,
      "componentType": 5126,
      "count": 926,
      "max": [
        0.09783796221017838,
        -0.1357768028974533,
        0.055393286049366
      ],
      "min": [
        -0.09783399105072021,
        -0.17837132513523102,
        -0.011699028313159943
      ],
      "type": "VEC3"
    },
    {
      "bufferView": 2,
      "byteOffset": 205176,
      "componentType": 5126,
      "count": 926,
      "max": [
        0.9896761775016785,
        1.0,
        1.0
      ],
      "min": [
        -0.9896760582923889,
        -1.0,
        -1.0
      ],
      "type": "VEC3"
    },
    {
      "bufferView": 1,
      "byteOffset": 64688,
      "componentType": 5126,
      "count": 926,
      "max": [
        1.0,
        1.0
      ],
      "min": [
        0.0,
        0.0
      ],
      "type": "VEC2"
    },
    {
      "bufferView": 0,
      "byteOffset": 171840,
      "componentType": 5125,
      "count": 4224,
      "type": "SCALAR"
    },
    {
      "bufferView": 2,
      "byteOffset": 216288,
      "componentType": 5126,
      "count": 1167,
      "max": [
        0.0694928914308548,
        0.045430053025484085,
        0.17543917894363403
      ],
      "min": [
        -0.06405172497034073,
        -0.07716257870197296,
        0.13422173261642456
      ],
      "type": "VEC3"
    },
    {
      "bufferView": 2,
      "byteOffset": 230292,
      "componentType": 5126,
      "count": 1167,
      "max": [
        0.998763382434845,
        0.9990479946136475,
        0.9999679923057556
      ],
      "min": [
        -0.9974775314331055,
        -0.9849280714988708,
        -1.0
      ],
      "type": "VEC3"
    },
    {
      "bufferView": 1,
      "byteOffset": 72096,
      "componentType": 5126,
      "count": 1167,
      "max": [
        1.0,
        1.0
      ],
      "min": [
        -0.027777791023254395,
        0.0
      ],
      "type": "VEC2"
    },
    {
      "bufferView": 0,
      "byteOffset": 188736,
      "componentType": 5125,
      "count": 6480,
      "type": "SCALAR"
    },
    {
      "bufferView": 2,
      "byteOffset": 244296,
      "componentType": 5126,
      "count": 2621,
      "max": [
        0.17325884103775024,
        0.17326904833316803,
        0.14594650268554688
      ],
      "min": [
        -0.17325884103775024,
        -0.17326907813549042,
        -0.16432467103004456
      ],
      "type": "VEC3"
    },
    {
      "bufferView": 2,
      "byteOffset": 275748,
      "componentType": 5126,
      "count": 2621,
      "max": [
        1.0,
        1.0,
        1.0
      ],
      "min": [
        -1.0,
        -1.0,
        -1.0
      ],
      "type": "VEC3"
    },
    {
      "bufferView": 1,
      "byteOffset": 81432,
      "componentType": 5126,
      "count": 2621,
      "max": [
        0.9999998211860657,
        1.0
      ],
      "min": [
        0.0,
        5.960464477539063e-08
      ],
      "type": "VEC2"
    },
    {
      "bufferView": 0,
      "byteOffset": 214656,
      "componentType": 5125,
      "count": 14688,
      "type": "SCALAR"
    }
  ],
  "asset": {
    "extras": {
      "author": "binrong (https://sketchfab.com/binrong)",
      "license": "CC-BY-NC-4.0 (http://creativecommons.org/licenses/by-nc/4.0/)",
      "source": "https://sketchfab.com/3d-models/day14-vegetables-c82dc27d323b4c8294488345fe41866e",
      "title": "DAY14: VEGETABLES"
    },
    "generator": "Sketchfab-12.67.0",
    "version": "2.0"
  },
  "bufferViews": [
    {
      "buffer": 0,
      "byteLength": 273408,
      "name": "floatBufferViews",
      "target": 34963
    },
    {
      "buffer": 0,
      "byteLength": 102400,
      "byteOffset": 273408,
      "byteStride": 8,
      "name": "floatBufferViews",
      "target": 34962
    },
    {
      "buffer": 0,
      "byteLength": 307200,
      "byteOffset": 375808,
      "byteStride": 12,
      "name": "floatBufferViews",
      "target": 34962
    }
  ],
  "buffers": [
    {
      "byteLength": 683008,
      "uri": "scene.bin"
    }
  ],
  "materials": [
    {
      "doubleSided": true,
      "name": "black",
      "pbrMetallicRoughness": {
        "baseColorFactor": [
          0.0,
          0.0,
          0.0,
          1.0
        ],
        "metallicFactor": 0.0,
        "roughnessFactor": 0.0
      }
    },
    {
      "doubleSided": true,
      "name": "green",
      "pbrMetallicRoughness": {
        "baseColorFactor": [
          0.0,
          0.3749243578,
          0.0156231732,
          1.0
        ],
        "metallicFactor": 0.0,
        "roughnessFactor": 0.19233889940000004
      }
    },
    {
      "doubleSided": true,
      "name": "orange",
      "pbrMetallicRoughness": {
        "baseColorFactor": [
          0.9882350000000001,
          0.29686314332763764,
          0.0,
          1.0
        ],
        "metallicFactor": 0.0,
        "roughnessFactor": 0.5590668912000001
      }
    },
    {
      "doubleSided": true,
      "name": "material",
      "pbrMetallicRoughness": {
        "baseColorFactor": [
          0.988235,
          0.0,
          0.0,
          1.0
        ],
        "metallicFactor": 0.0,
        "roughnessFactor": 0.0
      }
    }
  ],
  "meshes": [
    {
      "name": "CARROT_black_0",
      "primitives": [
        {
          "attributes": {
            "NORMAL": 1,
            "POSITION": 0,
            "TEXCOORD_0": 2
          },
          "indices": 3,
          "material": 0,
          "mode": 4
        }
      ]
    },
    {
      "name": "CARROT_green_0",
      "primitives": [
        {
          "attributes": {
            "NORMAL": 5,
            "POSITION": 4,
            "TEXCOORD_0": 6
          },
          "indices": 7,
          "material": 1,
          "mode": 4
        }
      ]
    },
    {
      "name": "CARROT_orange_0",
      "primitives": [
        {
          "attributes": {
            "NORMAL": 9,
            "POSITION": 8,
            "TEXCOORD_0": 10
          },
          "indices": 11,
          "material": 2,
          "mode": 4
        }
      ]
    },
    {
      "name": "TOMATO_black_0",
      "primitives": [
        {
          "attributes": {
            "NORMAL": 13,
            "POSITION": 12,
            "TEXCOORD_0": 14
          },
          "indices": 15,
          "material": 0,
          "mode": 4
        }
      ]
    },
    {
      "name": "TOMATO_green_0",
      "primitives": [
        {
          "attributes": {
            "NORMAL": 17,
            "POSITION": 16,
            "TEXCOORD_0": 18
          },
          "indices": 19,
          "material": 1,
          "mode": 4
        }
      ]
    },
    {
      "name": "TOMATO_red_0",
      "primitives": [
        {
          "attributes": {
            "NORMAL": 21,
            "POSITION": 20,
            "TEXCOORD_0": 22
          },
          "indices": 23,
          "material": 3,
          "mode": 4
        }
      ]
    }
  ],
  "nodes": [
    {
      "children": [
        1
      ],
      "matrix": [
        1.0,
        0.0,
        0.0,
        0.0,
        0.0,
        -2.220446049250313e-16,
        1.0,
        0.0,
        0.0,
        -1.0,
        -2.220446049250313e-16,
        0.0,
        3.066953420639038,
        -39.85886001586914,
        14.489695549011222,
        1.0
      ],
      "name": "Sketchfab_model"
    },
    {
      "children": [
        2
      ],
      "matrix": [
        1.0,
        0.0,
        0.0,
        0.0,
        0.0,
        -1.0,
        0.0,
        0.0,
        0.0,
        0.0,
        -1.0,
        0.0,
        0.0,
        0.0,
        0.0,
        1.0
      ],
      "name": "98647bf93eea414ab64256e8fde920f9.fbx"
    },
    {
      "children": [
        3,
        8
      ],
      "name": "RootNode"
    },
    {
      "children": [
        4
      ],
      "matrix": [
        93.96926168497419,
        0.0,
        -34.202015414019705,
        0.0,
        0.0,
        100.0,
        0.0,
        0.0,
        34.202015414019705,
        0.0,
        93.96926168497419,
        0.0,
        -34.030155181884766,
        0.0,
        0.0,
        1.0
      ],
      "name": "CARROT"
    },
    {
      "children": [
        5,
        6,
        7
      ],
      "matrix": [
        1.0,
        0.0,
        -0.0,
        0.0,
        0.0,
        1.0,
        0.0,
        0.0,
        0.0,
        0.0,
        1.0,
        0.0,
        0.0,
        0.0,
        0.209531739354134,
        1.0
      ],
      "name": "Object_4"
    },
    {
      "mesh": 0,
      "name": "CARROT_black_0"
    },
    {
      "mesh": 1,
      "name": "CARROT_green_0"
    },
    {
      "mesh": 2,
      "name": "CARROT_orange_0"
    },
    {
      "children": [
        9
      ],
      "matrix": [
        100.0,
        0.0,
        0.0,
        0.0,
        0.0,
        100.0,
        0.0,
        0.0,
        0.0,
        0.0,
        88.0906982421875,
        0.0,
        0.0,
        9.520548820495605,
        0.0,
        1.0
      ],
      "name": "TOMATO"
    },
    {
      "children": [
        10,
        11,
        12
      ],
      "matrix": [
        1.0,
        0.0,
        -0.0,
        0.0,
        0.0,
        1.0,
        0.0,
        0.0,
        0.0,
        0.0,
        1.0,
        0.0,
        0.0,
        0.0,
        0.164828091859818,
        1.0
      ],
      "name": "Object_9"
    },
    {
      "mesh": 3,
      "name": "TOMATO_black_0"
    },
    {
      "mesh": 4,
      "name": "TOMATO_green_0"
    },
    {
      "mesh": 5,
      "name": "TOMATO_red_0"
    }
  ],
  "scene": 0,
  "scenes": [
    {
      "name": "Sketchfab_Scene",
      "nodes": [
        0
      ]
    }
  ]
}
